<svg width="50" height="60" viewBox="0 0 50 60" fill="none" xmlns="http://www.w3.org/2000/svg">
<path d="M25 0C11.2059 0 0 11.43 0 25.5C0 39.57 11.2059 51 25 51H26.4706V60C40.7647 52.98 50 39 50 25.5C50 11.43 38.7941 0 25 0ZM27.9412 43.5H22.0588V37.5H27.9412V43.5ZM27.9412 33H22.0588C22.0588 23.25 30.8824 24 30.8824 18C30.8824 14.7 28.2353 12 25 12C21.7647 12 19.1176 14.7 19.1176 18H13.2353C13.2353 11.37 18.5 6 25 6C31.5 6 36.7647 11.37 36.7647 18C36.7647 25.5 27.9412 26.25 27.9412 33Z" fill="black"/>
</svg>
