<svg width="59" height="50" viewBox="0 0 59 50" fill="none" xmlns="http://www.w3.org/2000/svg">
<path d="M41.5682 28.5714C38.35 28.5714 33.335 29.7857 29.5 32.1429C25.665 29.75 20.65 28.5714 17.4318 28.5714C11.6123 28.5714 0 32.4286 0 40.1786V50H59V40.1786C59 32.4286 47.3877 28.5714 41.5682 28.5714ZM30.8409 44.6429H4.02273V40.1786C4.02273 38.25 10.8882 33.9286 17.4318 33.9286C23.9755 33.9286 30.8409 38.25 30.8409 40.1786V44.6429ZM54.9773 44.6429H34.8636V40.1786C34.8636 38.5357 34.3273 37.1071 33.4691 35.8214C35.8291 34.75 38.7255 33.9286 41.5682 33.9286C48.1118 33.9286 54.9773 38.25 54.9773 40.1786V44.6429ZM17.4318 25C22.6077 25 26.8182 19.3929 26.8182 12.5C26.8182 5.60714 22.6077 0 17.4318 0C12.2559 0 8.04545 5.60714 8.04545 12.5C8.04545 19.3929 12.2559 25 17.4318 25ZM17.4318 5.35714C20.3818 5.35714 22.7955 8.57143 22.7955 12.5C22.7955 16.4286 20.3818 19.6429 17.4318 19.6429C14.4818 19.6429 12.0682 16.4286 12.0682 12.5C12.0682 8.57143 14.4818 5.35714 17.4318 5.35714ZM41.5682 25C46.7441 25 50.9545 19.3929 50.9545 12.5C50.9545 5.60714 46.7441 0 41.5682 0C36.3923 0 32.1818 5.60714 32.1818 12.5C32.1818 19.3929 36.3923 25 41.5682 25ZM41.5682 5.35714C44.5182 5.35714 46.9318 8.57143 46.9318 12.5C46.9318 16.4286 44.5182 19.6429 41.5682 19.6429C38.6182 19.6429 36.2045 16.4286 36.2045 12.5C36.2045 8.57143 38.6182 5.35714 41.5682 5.35714Z" fill="#234440"/>
</svg>
