<svg width="40" height="40" viewBox="0 0 40 40" fill="none" xmlns="http://www.w3.org/2000/svg">
<path d="M38.3333 6.66667V16.6667H28.3333" stroke="#C62828" stroke-width="2" stroke-linecap="round" stroke-linejoin="round"/>
<path d="M1.66675 33.3333V23.3333H11.6667" stroke="#C62828" stroke-width="2" stroke-linecap="round" stroke-linejoin="round"/>
<path d="M5.85008 15C6.69536 12.6113 8.13197 10.4757 10.0259 8.79236C11.9197 7.10905 14.2092 5.93294 16.6806 5.37376C19.1519 4.81458 21.7247 4.89056 24.1587 5.59462C26.5928 6.29867 28.8088 7.60785 30.6001 9.39999L38.3334 16.6667M1.66675 23.3333L9.40008 30.6C11.1913 32.3921 13.4074 33.7013 15.8414 34.4054C18.2755 35.1094 20.8482 35.1854 23.3196 34.6262C25.791 34.0671 28.0804 32.8909 29.9743 31.2076C31.8682 29.5243 33.3048 27.3887 34.1501 25" stroke="#C62828" stroke-width="2" stroke-linecap="round" stroke-linejoin="round"/>
</svg>
