<svg width="22" height="26" viewBox="0 0 22 26" fill="none" xmlns="http://www.w3.org/2000/svg">
<path d="M17.515 0.744999C17.6783 0.534999 17.83 0.371666 17.97 0.254999C18.1333 0.138333 18.2967 0.0799996 18.46 0.0799996C18.6233 0.0799996 18.9383 0.208333 19.405 0.464999C19.8717 0.698332 20.105 0.896665 20.105 1.06C20.105 1.48 19.9533 1.87667 19.65 2.25C19.37 2.6 19.125 2.90333 18.915 3.16L18.6 3.545C17.7833 4.57167 16.8967 5.72667 15.94 7.01C14.9833 8.29333 14.295 9.18 13.875 9.67C13.4783 10.16 13.14 10.5917 12.86 10.965C12.6033 11.315 12.475 11.5483 12.475 11.665C12.475 11.7817 12.7433 12.19 13.28 12.89C13.84 13.59 15.0183 15.0717 16.815 17.335C18.635 19.5983 19.7317 21.01 20.105 21.57C20.4783 22.13 20.7583 22.5383 20.945 22.795C21.155 23.0517 21.26 23.2383 21.26 23.355C21.26 23.705 20.9917 24.1367 20.455 24.65C19.9183 25.1633 19.4633 25.42 19.09 25.42C18.6233 25.1167 17.7483 24.1833 16.465 22.62C15.205 21.0333 14.33 19.9017 13.84 19.225C13.3733 18.525 12.8833 17.86 12.37 17.23C11.0867 15.5967 10.41 14.78 10.34 14.78C10.13 14.78 9.72167 15.235 9.115 16.145C8.50833 17.0317 7.55167 18.3033 6.245 19.96C4.93833 21.5933 4.145 22.6083 3.865 23.005C3.585 23.4017 3.36333 23.7167 3.2 23.95C3.06 24.16 2.92 24.37 2.78 24.58C2.38333 25.0933 2.06833 25.3733 1.835 25.42C1.60167 25.42 1.275 25.2917 0.855 25.035C0.458333 24.7783 0.225 24.58 0.155 24.44C0.155 24.1833 0.353333 23.7517 0.75 23.145L1.03 22.76C1.38 22.27 1.87 21.57 2.5 20.66C3.80667 18.7933 4.96167 17.265 5.965 16.075L6.77 15.06C7.84333 13.6367 8.38 12.7967 8.38 12.54C8.38 12.2833 7.35333 10.86 5.3 8.27C3.24667 5.68 1.95167 4.02333 1.415 3.3C0.901667 2.55333 0.645 2.06333 0.645 1.83C0.645 1.59666 0.936667 1.305 1.52 0.954999C2.10333 0.371666 2.5 0.0799996 2.71 0.0799996C2.92 0.0799996 3.14167 0.173332 3.375 0.359998C3.60833 0.523332 3.87667 0.791665 4.18 1.165C4.50667 1.53833 4.79833 1.88833 5.055 2.215C5.31167 2.51833 5.62667 2.93833 6 3.475C6.39667 3.98833 6.67667 4.35 6.84 4.56L10.795 9.565C10.935 9.565 11.7983 8.48 13.385 6.31C14.9717 4.11667 15.87 2.88 16.08 2.6C16.29 2.32 16.465 2.075 16.605 1.865C16.7683 1.655 16.92 1.46833 17.06 1.305C17.2 1.11833 17.3517 0.931665 17.515 0.744999Z" fill="black" fill-opacity="0.68"/>
</svg>
